<svg width="25" height="24" viewBox="0 0 25 24" fill="none" xmlns="http://www.w3.org/2000/svg">
<path fill-rule="evenodd" clip-rule="evenodd" d="M18.2997 5.20703H14.7139V3.20703H20.4639C21.1542 3.20703 21.7139 3.76667 21.7139 4.45703V10.207H19.7139V6.62125L14.421 11.9141L13.0068 10.4999L18.2997 5.20703ZM7.71387 6.20703C7.16158 6.20703 6.71387 6.65475 6.71387 7.20703V17.207C6.71387 17.7593 7.16158 18.207 7.71387 18.207H17.7139C18.2662 18.207 18.7139 17.7593 18.7139 17.207V16.207H20.7139V17.207C20.7139 18.8639 19.3707 20.207 17.7139 20.207H7.71387C6.05701 20.207 4.71387 18.8639 4.71387 17.207V7.20703C4.71387 5.55018 6.05701 4.20703 7.71387 4.20703H8.71387V6.20703H7.71387Z" fill="white"/>
</svg>
